<?xml version="1.0" encoding="iso-8859-1"?>
<!-- Uploaded to: SVG Repo, www.svgrepo.com, Generator: SVG Repo Mixer Tools -->
<svg height="800px" width="800px" version="1.1" id="Capa_1" xmlns="http://www.w3.org/2000/svg" xmlns:xlink="http://www.w3.org/1999/xlink" 
	 viewBox="0 0 33.058 33.058" xml:space="preserve">
<g>
	<g id="b8_fruit">
		<path style="fill:#030104;" d="M31.491,5.704c-2.442-1.9-6.377,0.692-9.808,2.548L26.9,3.65c0,0,1.952-0.625,0.554-1.932
			C21.595-1.7,12.864,0.056,6.58,6.338c-7.187,7.19-8.451,17.582-2.818,23.213c0.331,0.969,2.115-1.596,2.819-2.334
			c-0.322,0.328,0.837-0.87,0,0c-0.419,1.035-0.666,2.644-0.809,3.916c5.857,3.687,14.794,2.002,21.198-4.402
			C33.314,20.391,33.934,7.605,31.491,5.704z"/>
	</g>
</g>
</svg>